<svg width="49" height="45" viewBox="0 0 49 45" fill="none" xmlns="http://www.w3.org/2000/svg">
<path fill-rule="evenodd" clip-rule="evenodd" d="M47.0656 11.8229L42.8042 17.7812L38.5429 11.8229H40.8663C40.6892 7.39583 37.0322 3.85417 32.5624 3.85417C28.7908 3.85417 25.5922 6.38542 24.5815 9.83333C23.3521 9.4375 22.081 9.1875 20.7891 9.07292C20.9349 8.52083 21.1225 7.96875 21.3517 7.4375C21.9664 5.98958 22.8416 4.6875 23.9564 3.57292C25.0712 2.45833 26.3736 1.57292 27.8218 0.96875C29.3222 0.322917 30.9163 0 32.5624 0C34.2086 0 35.8027 0.322917 37.3031 0.958333C38.7513 1.57292 40.0537 2.44792 41.1685 3.5625C42.2833 4.67708 43.1585 5.97917 43.7732 7.42708C44.3671 8.82292 44.6901 10.3021 44.7213 11.8229H47.0656Z" fill="#89BCD9"/>
<path fill-rule="evenodd" clip-rule="evenodd" d="M41.1047 44.9987V42.4362H26.4141C26.5183 42.3841 26.6224 42.3424 26.7266 42.2904C28.3207 41.5299 29.7898 40.5404 31.1026 39.332C31.2797 39.1654 31.4464 39.0091 31.6027 38.8529C31.7798 38.6758 31.9673 38.4883 32.1445 38.2904C32.3528 38.0612 32.5612 37.8216 32.7488 37.582H41.1047V35.0195L48.0854 40.0091L41.1047 44.9987Z" fill="#89BCD9"/>
<path fill-rule="evenodd" clip-rule="evenodd" d="M35.6848 26.4909C35.6848 28.7096 35.2472 30.8659 34.3929 32.8971C33.6635 34.6263 32.6425 36.2096 31.3714 37.5951C31.2047 37.7721 31.038 37.9492 30.8713 38.1263C30.715 38.2826 30.5587 38.4284 30.4024 38.5846C29.173 39.7201 27.7977 40.6471 26.2974 41.3659C26.089 41.4701 25.8702 41.5638 25.6514 41.6576C25.641 41.6576 25.641 41.668 25.6305 41.668C24.3803 42.1992 23.0362 42.4596 21.6714 42.4596H0V37.6159H20.1189C26.2036 37.6159 31.1943 32.7513 31.2776 26.668C31.2776 26.6159 31.2776 26.5638 31.2776 26.5117C31.2776 19.8659 25.8806 14.4701 19.2333 14.4701C12.5861 14.4492 7.18906 19.8346 7.18906 26.4909H9.98133L4.99066 33.4701L0 26.4909H2.79227C2.79227 24.2721 3.22987 22.1159 4.08422 20.0846C4.91773 18.1263 6.09507 16.3659 7.60581 14.8555C9.11656 13.3451 10.8774 12.1576 12.8361 11.3346C14.8678 10.4805 17.0245 10.043 19.2437 10.043C19.6918 10.043 20.1294 10.0638 20.567 10.0951C21.8589 10.1992 23.1196 10.4492 24.349 10.8555C24.7866 11.0013 25.2138 11.1576 25.641 11.3451C27.5997 12.1784 29.3605 13.3555 30.8713 14.8659C32.382 16.3763 33.5698 18.1367 34.3929 20.0951C35.2472 22.1159 35.6848 24.2721 35.6848 26.4909Z" fill="#89BCD9"/>
</svg>
